<svg width="700pt" height="700pt" version="1.1" viewBox="0 0 700 700" xmlns="http://www.w3.org/2000/svg" fill="#cccccc">
 <g>
  <path d="m233.33 280c0 25.773-20.891 46.668-46.664 46.668-25.773 0-46.668-20.895-46.668-46.668s20.895-46.668 46.668-46.668c25.773 0 46.664 20.895 46.664 46.668"/>
  <path d="m396.67 280c0 25.773-20.895 46.668-46.668 46.668s-46.668-20.895-46.668-46.668 20.895-46.668 46.668-46.668 46.668 20.895 46.668 46.668"/>
  <path d="m560 280c0 25.773-20.895 46.668-46.668 46.668-25.773 0-46.664-20.895-46.664-46.668s20.891-46.668 46.664-46.668c25.773 0 46.668 20.895 46.668 46.668"/>
 </g>
</svg>
